<svg id="visual" viewBox="0 0 900 600" width="900" height="600" xmlns="http://www.w3.org/2000/svg" xmlns:xlink="http://www.w3.org/1999/xlink" version="1.1"><g stroke-width="1" stroke-linejoin="bevel"><path d="M411.4 281.7L368.2 282.7L401.4 324.3Z" fill="#161616" stroke="#161616"></path><path d="M368.2 282.7L365.2 331.3L401.4 324.3Z" fill="#171717" stroke="#171717"></path><path d="M411.4 281.7L408.4 226L368.2 282.7Z" fill="#161616" stroke="#161616"></path><path d="M266.9 304.3L361.2 374L365.2 331.3Z" fill="#191919" stroke="#191919"></path><path d="M365.2 331.3L361.2 374L401.4 324.3Z" fill="#171717" stroke="#171717"></path><path d="M400.4 387L465.6 340.3L401.4 324.3Z" fill="#171717" stroke="#171717"></path><path d="M401.4 324.3L465.6 340.3L411.4 281.7Z" fill="#1c1c1c" stroke="#1c1c1c"></path><path d="M411.4 281.7L489.6 272.7L408.4 226Z" fill="#1a1a1a" stroke="#1a1a1a"></path><path d="M361.2 374L400.4 387L401.4 324.3Z" fill="#171717" stroke="#171717"></path><path d="M408.4 226L340.2 224L368.2 282.7Z" fill="#1a1a1a" stroke="#1a1a1a"></path><path d="M368.2 282.7L266.9 304.3L365.2 331.3Z" fill="#1a1a1a" stroke="#1a1a1a"></path><path d="M340.2 224L296.9 255.7L368.2 282.7Z" fill="#1b1b1b" stroke="#1b1b1b"></path><path d="M465.6 340.3L489.6 272.7L411.4 281.7Z" fill="#181818" stroke="#181818"></path><path d="M489.6 272.7L453.6 205L408.4 226Z" fill="#1a1a1a" stroke="#1a1a1a"></path><path d="M408.4 226L422.4 147.3L340.2 224Z" fill="#171717" stroke="#171717"></path><path d="M296.9 255.7L266.9 304.3L368.2 282.7Z" fill="#171717" stroke="#171717"></path><path d="M400.4 387L496.6 387L465.6 340.3Z" fill="#1c1c1c" stroke="#1c1c1c"></path><path d="M465.6 340.3L570.8 318.3L489.6 272.7Z" fill="#1b1b1b" stroke="#1b1b1b"></path><path d="M361.2 374L411.4 438.7L400.4 387Z" fill="#191919" stroke="#191919"></path><path d="M400.4 387L411.4 438.7L496.6 387Z" fill="#1c1c1c" stroke="#1c1c1c"></path><path d="M279.9 412L411.4 438.7L361.2 374Z" fill="#161616" stroke="#161616"></path><path d="M453.6 205L422.4 147.3L408.4 226Z" fill="#171717" stroke="#171717"></path><path d="M340.2 224L286.9 162.3L296.9 255.7Z" fill="#191919" stroke="#191919"></path><path d="M266.9 304.3L279.9 412L361.2 374Z" fill="#171717" stroke="#171717"></path><path d="M190.7 234.7L230.7 296.3L296.9 255.7Z" fill="#161616" stroke="#161616"></path><path d="M296.9 255.7L230.7 296.3L266.9 304.3Z" fill="#1b1b1b" stroke="#1b1b1b"></path><path d="M266.9 304.3L223.7 417L279.9 412Z" fill="#161616" stroke="#161616"></path><path d="M489.6 272.7L522.8 208L453.6 205Z" fill="#181818" stroke="#181818"></path><path d="M453.6 205L460.6 149.3L422.4 147.3Z" fill="#1a1a1a" stroke="#1a1a1a"></path><path d="M538.8 227.7L522.8 208L489.6 272.7Z" fill="#1b1b1b" stroke="#1b1b1b"></path><path d="M473.6 455.7L518.8 396L496.6 387Z" fill="#1c1c1c" stroke="#1c1c1c"></path><path d="M496.6 387L570.8 318.3L465.6 340.3Z" fill="#181818" stroke="#181818"></path><path d="M570.8 318.3L538.8 227.7L489.6 272.7Z" fill="#191919" stroke="#191919"></path><path d="M522.8 208L460.6 149.3L453.6 205Z" fill="#1b1b1b" stroke="#1b1b1b"></path><path d="M345.2 128.3L286.9 162.3L340.2 224Z" fill="#181818" stroke="#181818"></path><path d="M287.9 94.7L345.2 128.3L343.2 27.7Z" fill="#191919" stroke="#191919"></path><path d="M422.4 147.3L345.2 128.3L340.2 224Z" fill="#171717" stroke="#171717"></path><path d="M411.4 438.7L473.6 455.7L496.6 387Z" fill="#171717" stroke="#171717"></path><path d="M372.2 504.7L473.6 455.7L411.4 438.7Z" fill="#1b1b1b" stroke="#1b1b1b"></path><path d="M518.8 396L570.8 318.3L496.6 387Z" fill="#1a1a1a" stroke="#1a1a1a"></path><path d="M287.9 94.7L262.9 160L286.9 162.3Z" fill="#181818" stroke="#181818"></path><path d="M286.9 162.3L262.9 160L296.9 255.7Z" fill="#181818" stroke="#181818"></path><path d="M233.7 437.7L258.9 446.7L279.9 412Z" fill="#1b1b1b" stroke="#1b1b1b"></path><path d="M279.9 412L372.2 504.7L411.4 438.7Z" fill="#1b1b1b" stroke="#1b1b1b"></path><path d="M230.7 296.3L223.7 417L266.9 304.3Z" fill="#181818" stroke="#181818"></path><path d="M258.9 446.7L372.2 504.7L279.9 412Z" fill="#1c1c1c" stroke="#1c1c1c"></path><path d="M223.7 417L233.7 437.7L279.9 412Z" fill="#171717" stroke="#171717"></path><path d="M287.9 545.3L349.2 557.3L372.2 504.7Z" fill="#1a1a1a" stroke="#1a1a1a"></path><path d="M262.9 160L190.7 234.7L296.9 255.7Z" fill="#1c1c1c" stroke="#1c1c1c"></path><path d="M230.7 296.3L140.5 377L223.7 417Z" fill="#191919" stroke="#191919"></path><path d="M518.8 396L599.1 352.3L570.8 318.3Z" fill="#1b1b1b" stroke="#1b1b1b"></path><path d="M570.8 318.3L594.1 195L538.8 227.7Z" fill="#181818" stroke="#181818"></path><path d="M572.8 431.7L599.1 352.3L518.8 396Z" fill="#1b1b1b" stroke="#1b1b1b"></path><path d="M558.8 532.3L572.8 431.7L473.6 455.7Z" fill="#171717" stroke="#171717"></path><path d="M473.6 455.7L572.8 431.7L518.8 396Z" fill="#171717" stroke="#171717"></path><path d="M399.4 36.7L345.2 128.3L422.4 147.3Z" fill="#171717" stroke="#171717"></path><path d="M345.2 128.3L287.9 94.7L286.9 162.3Z" fill="#181818" stroke="#181818"></path><path d="M262.9 160L174.7 160L190.7 234.7Z" fill="#181818" stroke="#181818"></path><path d="M538.8 227.7L594.1 195L522.8 208Z" fill="#1a1a1a" stroke="#1a1a1a"></path><path d="M522.8 208L581.8 163.3L460.6 149.3Z" fill="#1a1a1a" stroke="#1a1a1a"></path><path d="M662.1 235.7L594.1 195L570.8 318.3Z" fill="#1b1b1b" stroke="#1b1b1b"></path><path d="M190.7 234.7L161.5 277.7L230.7 296.3Z" fill="#1a1a1a" stroke="#1a1a1a"></path><path d="M594.1 195L581.8 163.3L522.8 208Z" fill="#181818" stroke="#181818"></path><path d="M460.6 149.3L485.6 57.7L422.4 147.3Z" fill="#181818" stroke="#181818"></path><path d="M178.7 116.3L174.7 160L262.9 160Z" fill="#1b1b1b" stroke="#1b1b1b"></path><path d="M190.7 234.7L135.5 238L161.5 277.7Z" fill="#1a1a1a" stroke="#1a1a1a"></path><path d="M585.1 97.3L485.6 57.7L460.6 149.3Z" fill="#1b1b1b" stroke="#1b1b1b"></path><path d="M287.9 545.3L372.2 504.7L258.9 446.7Z" fill="#1a1a1a" stroke="#1a1a1a"></path><path d="M372.2 504.7L452.4 557.3L473.6 455.7Z" fill="#1c1c1c" stroke="#1c1c1c"></path><path d="M572.8 431.7L630.1 403L599.1 352.3Z" fill="#171717" stroke="#171717"></path><path d="M670.3 311.3L662.1 235.7L570.8 318.3Z" fill="#1a1a1a" stroke="#1a1a1a"></path><path d="M604.1 496.7L630.1 403L572.8 431.7Z" fill="#181818" stroke="#181818"></path><path d="M119.5 334.3L140.5 377L161.5 277.7Z" fill="#161616" stroke="#161616"></path><path d="M161.5 277.7L140.5 377L230.7 296.3Z" fill="#181818" stroke="#181818"></path><path d="M223.7 417L146.5 453.7L233.7 437.7Z" fill="#191919" stroke="#191919"></path><path d="M186.7 508.3L287.9 545.3L258.9 446.7Z" fill="#161616" stroke="#161616"></path><path d="M174.7 160L135.5 238L190.7 234.7Z" fill="#181818" stroke="#181818"></path><path d="M485.6 57.7L399.4 36.7L422.4 147.3Z" fill="#1a1a1a" stroke="#1a1a1a"></path><path d="M349.2 557.3L452.4 557.3L372.2 504.7Z" fill="#1b1b1b" stroke="#1b1b1b"></path><path d="M186.7 508.3L258.9 446.7L233.7 437.7Z" fill="#1b1b1b" stroke="#1b1b1b"></path><path d="M106.2 333.3L119.5 334.3L161.5 277.7Z" fill="#1a1a1a" stroke="#1a1a1a"></path><path d="M399.4 36.7L343.2 27.7L345.2 128.3Z" fill="#161616" stroke="#161616"></path><path d="M287.9 94.7L178.7 116.3L262.9 160Z" fill="#1c1c1c" stroke="#1c1c1c"></path><path d="M382.4 600L457.6 568.3L452.4 557.3Z" fill="#161616" stroke="#161616"></path><path d="M452.4 557.3L558.8 532.3L473.6 455.7Z" fill="#181818" stroke="#181818"></path><path d="M670.3 311.3L570.8 318.3L599.1 352.3Z" fill="#181818" stroke="#181818"></path><path d="M594.1 195L654.3 175L581.8 163.3Z" fill="#1b1b1b" stroke="#1b1b1b"></path><path d="M581.8 163.3L585.1 97.3L460.6 149.3Z" fill="#1c1c1c" stroke="#1c1c1c"></path><path d="M199.7 47.7L178.7 116.3L287.9 94.7Z" fill="#191919" stroke="#191919"></path><path d="M174.7 160L134.5 108.3L135.5 238Z" fill="#171717" stroke="#171717"></path><path d="M630.1 403L670.3 311.3L599.1 352.3Z" fill="#191919" stroke="#191919"></path><path d="M617.1 98.7L585.1 97.3L581.8 163.3Z" fill="#1c1c1c" stroke="#1c1c1c"></path><path d="M135.5 238L106.2 333.3L161.5 277.7Z" fill="#171717" stroke="#171717"></path><path d="M119.5 334.3L106.2 333.3L140.5 377Z" fill="#181818" stroke="#181818"></path><path d="M457.6 568.3L558.8 532.3L452.4 557.3Z" fill="#191919" stroke="#191919"></path><path d="M72.2 426.7L146.5 453.7L140.5 377Z" fill="#191919" stroke="#191919"></path><path d="M140.5 377L146.5 453.7L223.7 417Z" fill="#171717" stroke="#171717"></path><path d="M558.8 532.3L604.1 496.7L572.8 431.7Z" fill="#171717" stroke="#171717"></path><path d="M630.1 403L675.3 404L670.3 311.3Z" fill="#161616" stroke="#161616"></path><path d="M146.5 453.7L186.7 508.3L233.7 437.7Z" fill="#1a1a1a" stroke="#1a1a1a"></path><path d="M662.1 235.7L654.3 175L594.1 195Z" fill="#1c1c1c" stroke="#1c1c1c"></path><path d="M399.4 36.7L383.4 0L343.2 27.7Z" fill="#161616" stroke="#161616"></path><path d="M343.2 27.7L244.9 0L287.9 94.7Z" fill="#1a1a1a" stroke="#1a1a1a"></path><path d="M515.6 0L383.4 0L399.4 36.7Z" fill="#161616" stroke="#161616"></path><path d="M515.6 0L399.4 36.7L485.6 57.7Z" fill="#161616" stroke="#161616"></path><path d="M322.2 600L382.4 600L349.2 557.3Z" fill="#181818" stroke="#181818"></path><path d="M349.2 557.3L382.4 600L452.4 557.3Z" fill="#1b1b1b" stroke="#1b1b1b"></path><path d="M566.8 600L583.1 546.3L558.8 532.3Z" fill="#161616" stroke="#161616"></path><path d="M322.2 600L349.2 557.3L287.9 545.3Z" fill="#1b1b1b" stroke="#1b1b1b"></path><path d="M654.3 175L617.1 98.7L581.8 163.3Z" fill="#1b1b1b" stroke="#1b1b1b"></path><path d="M585.1 97.3L590.8 65.7L485.6 57.7Z" fill="#171717" stroke="#171717"></path><path d="M710.3 461.7L675.3 404L630.1 403Z" fill="#1b1b1b" stroke="#1b1b1b"></path><path d="M383.4 0L330.2 0L343.2 27.7Z" fill="#1a1a1a" stroke="#1a1a1a"></path><path d="M617.1 98.7L590.8 65.7L585.1 97.3Z" fill="#1a1a1a" stroke="#1a1a1a"></path><path d="M306.9 600L322.2 600L287.9 545.3Z" fill="#1c1c1c" stroke="#1c1c1c"></path><path d="M206.7 600L306.9 600L287.9 545.3Z" fill="#1c1c1c" stroke="#1c1c1c"></path><path d="M558.8 532.3L583.1 546.3L604.1 496.7Z" fill="#1a1a1a" stroke="#1a1a1a"></path><path d="M729.5 417L742.5 358.3L675.3 404Z" fill="#181818" stroke="#181818"></path><path d="M515.6 600L558.8 532.3L457.6 568.3Z" fill="#181818" stroke="#181818"></path><path d="M244.9 0L199.7 47.7L287.9 94.7Z" fill="#1b1b1b" stroke="#1b1b1b"></path><path d="M178.7 116.3L134.5 108.3L174.7 160Z" fill="#1a1a1a" stroke="#1a1a1a"></path><path d="M121.5 73.7L134.5 108.3L178.7 116.3Z" fill="#1a1a1a" stroke="#1a1a1a"></path><path d="M135.5 238L36.2 234.7L106.2 333.3Z" fill="#181818" stroke="#181818"></path><path d="M538.8 0L515.6 0L485.6 57.7Z" fill="#181818" stroke="#181818"></path><path d="M382.4 600L515.6 600L457.6 568.3Z" fill="#171717" stroke="#171717"></path><path d="M330.2 0L244.9 0L343.2 27.7Z" fill="#1c1c1c" stroke="#1c1c1c"></path><path d="M199.7 47.7L121.5 73.7L178.7 116.3Z" fill="#181818" stroke="#181818"></path><path d="M590.8 65.7L538.8 0L485.6 57.7Z" fill="#171717" stroke="#171717"></path><path d="M633.1 0L538.8 0L590.8 65.7Z" fill="#171717" stroke="#171717"></path><path d="M244.9 0L238.7 0L199.7 47.7Z" fill="#181818" stroke="#181818"></path><path d="M654.3 175L688.3 139.3L617.1 98.7Z" fill="#1b1b1b" stroke="#1b1b1b"></path><path d="M617.1 98.7L633.1 0L590.8 65.7Z" fill="#171717" stroke="#171717"></path><path d="M748.5 234L688.3 139.3L654.3 175Z" fill="#1a1a1a" stroke="#1a1a1a"></path><path d="M748.5 234L654.3 175L662.1 235.7Z" fill="#171717" stroke="#171717"></path><path d="M731.3 288.7L662.1 235.7L670.3 311.3Z" fill="#181818" stroke="#181818"></path><path d="M742.5 358.3L731.3 288.7L670.3 311.3Z" fill="#1b1b1b" stroke="#1b1b1b"></path><path d="M37.2 429L72.2 426.7L0 335.3Z" fill="#1b1b1b" stroke="#1b1b1b"></path><path d="M106.2 333.3L72.2 426.7L140.5 377Z" fill="#1c1c1c" stroke="#1c1c1c"></path><path d="M146.5 453.7L103.5 521.3L186.7 508.3Z" fill="#1a1a1a" stroke="#1a1a1a"></path><path d="M186.7 508.3L206.7 600L287.9 545.3Z" fill="#171717" stroke="#171717"></path><path d="M515.6 600L566.8 600L558.8 532.3Z" fill="#171717" stroke="#171717"></path><path d="M710.3 461.7L630.1 403L604.1 496.7Z" fill="#1a1a1a" stroke="#1a1a1a"></path><path d="M154.5 0L121.5 73.7L199.7 47.7Z" fill="#161616" stroke="#161616"></path><path d="M32.2 225L36.2 234.7L135.5 238Z" fill="#171717" stroke="#171717"></path><path d="M175.5 600L206.7 600L186.7 508.3Z" fill="#181818" stroke="#181818"></path><path d="M710.3 461.7L604.1 496.7L685.3 569.3Z" fill="#171717" stroke="#171717"></path><path d="M675.3 404L742.5 358.3L670.3 311.3Z" fill="#1c1c1c" stroke="#1c1c1c"></path><path d="M685.3 569.3L604.1 496.7L583.1 546.3Z" fill="#1b1b1b" stroke="#1b1b1b"></path><path d="M710.3 461.7L729.5 417L675.3 404Z" fill="#171717" stroke="#171717"></path><path d="M32.2 225L135.5 238L37.2 126.3Z" fill="#181818" stroke="#181818"></path><path d="M78.2 502.3L103.5 521.3L146.5 453.7Z" fill="#181818" stroke="#181818"></path><path d="M759.5 279.7L748.5 234L731.3 288.7Z" fill="#171717" stroke="#171717"></path><path d="M731.3 288.7L748.5 234L662.1 235.7Z" fill="#171717" stroke="#171717"></path><path d="M37.2 126.3L135.5 238L134.5 108.3Z" fill="#1b1b1b" stroke="#1b1b1b"></path><path d="M0 335.3L72.2 426.7L106.2 333.3Z" fill="#1b1b1b" stroke="#1b1b1b"></path><path d="M103.5 521.3L175.5 600L186.7 508.3Z" fill="#181818" stroke="#181818"></path><path d="M742.5 358.3L759.5 279.7L731.3 288.7Z" fill="#1c1c1c" stroke="#1c1c1c"></path><path d="M72.2 426.7L78.2 502.3L146.5 453.7Z" fill="#181818" stroke="#181818"></path><path d="M103.5 521.3L71.2 600L175.5 600Z" fill="#181818" stroke="#181818"></path><path d="M37.2 429L78.2 502.3L72.2 426.7Z" fill="#181818" stroke="#181818"></path><path d="M0 299.7L106.2 333.3L36.2 234.7Z" fill="#181818" stroke="#181818"></path><path d="M238.7 0L154.5 0L199.7 47.7Z" fill="#171717" stroke="#171717"></path><path d="M121.5 73.7L37.2 126.3L134.5 108.3Z" fill="#1a1a1a" stroke="#1a1a1a"></path><path d="M728.3 85.7L617.1 98.7L688.3 139.3Z" fill="#1a1a1a" stroke="#1a1a1a"></path><path d="M688.3 0L633.1 0L617.1 98.7Z" fill="#171717" stroke="#171717"></path><path d="M729.5 417L794.8 427.7L742.5 358.3Z" fill="#1b1b1b" stroke="#1b1b1b"></path><path d="M836.8 348.3L815.8 270.7L759.5 279.7Z" fill="#1a1a1a" stroke="#1a1a1a"></path><path d="M710.3 461.7L741.5 457.7L729.5 417Z" fill="#181818" stroke="#181818"></path><path d="M774.5 530.3L741.5 457.7L710.3 461.7Z" fill="#191919" stroke="#191919"></path><path d="M32.2 225L0 299.7L36.2 234.7Z" fill="#191919" stroke="#191919"></path><path d="M0 299.7L0 335.3L106.2 333.3Z" fill="#181818" stroke="#181818"></path><path d="M35.2 45.7L37.2 126.3L121.5 73.7Z" fill="#171717" stroke="#171717"></path><path d="M32.2 225L0 179L0 299.7Z" fill="#1b1b1b" stroke="#1b1b1b"></path><path d="M566.8 600L648.1 600L583.1 546.3Z" fill="#1b1b1b" stroke="#1b1b1b"></path><path d="M790.8 190L728.3 85.7L688.3 139.3Z" fill="#1b1b1b" stroke="#1b1b1b"></path><path d="M790.8 190L688.3 139.3L748.5 234Z" fill="#1a1a1a" stroke="#1a1a1a"></path><path d="M648.1 600L685.3 569.3L583.1 546.3Z" fill="#171717" stroke="#171717"></path><path d="M37.2 126.3L0 179L32.2 225Z" fill="#1c1c1c" stroke="#1c1c1c"></path><path d="M0 335.3L0 423L37.2 429Z" fill="#1b1b1b" stroke="#1b1b1b"></path><path d="M37.2 429L0 444.7L78.2 502.3Z" fill="#1b1b1b" stroke="#1b1b1b"></path><path d="M37.2 126.3L0 168.3L0 179Z" fill="#171717" stroke="#171717"></path><path d="M815.8 270.7L748.5 234L759.5 279.7Z" fill="#1b1b1b" stroke="#1b1b1b"></path><path d="M815.8 270.7L790.8 190L748.5 234Z" fill="#1b1b1b" stroke="#1b1b1b"></path><path d="M0 423L0 444.7L37.2 429Z" fill="#171717" stroke="#171717"></path><path d="M78.2 502.3L71.2 600L103.5 521.3Z" fill="#1b1b1b" stroke="#1b1b1b"></path><path d="M748.5 0L688.3 0L728.3 85.7Z" fill="#1a1a1a" stroke="#1a1a1a"></path><path d="M728.3 85.7L688.3 0L617.1 98.7Z" fill="#1c1c1c" stroke="#1c1c1c"></path><path d="M774.5 530.3L794.8 427.7L741.5 457.7Z" fill="#161616" stroke="#161616"></path><path d="M741.5 457.7L794.8 427.7L729.5 417Z" fill="#1a1a1a" stroke="#1a1a1a"></path><path d="M836.8 348.3L759.5 279.7L742.5 358.3Z" fill="#1a1a1a" stroke="#1a1a1a"></path><path d="M40.2 0L35.2 45.7L121.5 73.7Z" fill="#1a1a1a" stroke="#1a1a1a"></path><path d="M37.2 126.3L0 85.7L0 168.3Z" fill="#1a1a1a" stroke="#1a1a1a"></path><path d="M0 570.3L71.2 600L78.2 502.3Z" fill="#171717" stroke="#171717"></path><path d="M35.2 45.7L0 85.7L37.2 126.3Z" fill="#191919" stroke="#191919"></path><path d="M731.3 600L774.5 530.3L685.3 569.3Z" fill="#181818" stroke="#181818"></path><path d="M685.3 569.3L774.5 530.3L710.3 461.7Z" fill="#181818" stroke="#181818"></path><path d="M834.8 393L742.5 358.3L794.8 427.7Z" fill="#171717" stroke="#171717"></path><path d="M834.8 393L836.8 348.3L742.5 358.3Z" fill="#171717" stroke="#171717"></path><path d="M824.8 146.3L790.8 190L900 177Z" fill="#1b1b1b" stroke="#1b1b1b"></path><path d="M824.8 146.3L795.5 99.3L790.8 190Z" fill="#161616" stroke="#161616"></path><path d="M790.8 190L795.5 99.3L728.3 85.7Z" fill="#1a1a1a" stroke="#1a1a1a"></path><path d="M900 472.7L834.8 393L794.8 427.7Z" fill="#1a1a1a" stroke="#1a1a1a"></path><path d="M648.1 600L731.3 600L685.3 569.3Z" fill="#181818" stroke="#181818"></path><path d="M154.5 0L40.2 0L121.5 73.7Z" fill="#1c1c1c" stroke="#1c1c1c"></path><path d="M35.2 45.7L0 0L0 85.7Z" fill="#181818" stroke="#181818"></path><path d="M900 237.7L790.8 190L815.8 270.7Z" fill="#181818" stroke="#181818"></path><path d="M795.5 99.3L796.5 77.7L728.3 85.7Z" fill="#181818" stroke="#181818"></path><path d="M811.8 58.7L796.5 77.7L795.5 99.3Z" fill="#171717" stroke="#171717"></path><path d="M731.3 600L746.5 600L774.5 530.3Z" fill="#1b1b1b" stroke="#1b1b1b"></path><path d="M900 379L836.8 348.3L834.8 393Z" fill="#1a1a1a" stroke="#1a1a1a"></path><path d="M796.5 77.7L748.5 0L728.3 85.7Z" fill="#1b1b1b" stroke="#1b1b1b"></path><path d="M0 444.7L0 570.3L78.2 502.3Z" fill="#191919" stroke="#191919"></path><path d="M900 87.7L811.8 58.7L795.5 99.3Z" fill="#181818" stroke="#181818"></path><path d="M796.5 77.7L811.8 58.7L748.5 0Z" fill="#1a1a1a" stroke="#1a1a1a"></path><path d="M40.2 0L0 0L35.2 45.7Z" fill="#1c1c1c" stroke="#1c1c1c"></path><path d="M0 570.3L0 600L71.2 600Z" fill="#171717" stroke="#171717"></path><path d="M900 379L900 319.3L836.8 348.3Z" fill="#1b1b1b" stroke="#1b1b1b"></path><path d="M836.8 348.3L900 319.3L815.8 270.7Z" fill="#181818" stroke="#181818"></path><path d="M824.8 146.3L900 87.7L795.5 99.3Z" fill="#181818" stroke="#181818"></path><path d="M834.8 554.3L794.8 427.7L774.5 530.3Z" fill="#181818" stroke="#181818"></path><path d="M831.8 600L834.8 554.3L774.5 530.3Z" fill="#1a1a1a" stroke="#1a1a1a"></path><path d="M900 319.3L900 237.7L815.8 270.7Z" fill="#171717" stroke="#171717"></path><path d="M900 472.7L900 379L834.8 393Z" fill="#181818" stroke="#181818"></path><path d="M900 237.7L900 177L790.8 190Z" fill="#1a1a1a" stroke="#1a1a1a"></path><path d="M746.5 600L831.8 600L774.5 530.3Z" fill="#181818" stroke="#181818"></path><path d="M834.8 554.3L900 472.7L794.8 427.7Z" fill="#161616" stroke="#161616"></path><path d="M900 510.3L900 472.7L834.8 554.3Z" fill="#1c1c1c" stroke="#1c1c1c"></path><path d="M900 177L900 111.3L824.8 146.3Z" fill="#1a1a1a" stroke="#1a1a1a"></path><path d="M811.8 58.7L865.8 0L748.5 0Z" fill="#161616" stroke="#161616"></path><path d="M900 600L900 510.3L834.8 554.3Z" fill="#171717" stroke="#171717"></path><path d="M900 111.3L900 87.7L824.8 146.3Z" fill="#181818" stroke="#181818"></path><path d="M900 87.7L865.8 0L811.8 58.7Z" fill="#1c1c1c" stroke="#1c1c1c"></path><path d="M900 87.7L900 0L865.8 0Z" fill="#171717" stroke="#171717"></path><path d="M831.8 600L900 600L834.8 554.3Z" fill="#1a1a1a" stroke="#1a1a1a"></path></g></svg>