<svg id="visual" viewBox="0 0 900 600" width="900" height="600" xmlns="http://www.w3.org/2000/svg" xmlns:xlink="http://www.w3.org/1999/xlink" version="1.1"><g stroke-width="1" stroke-linejoin="bevel"><path d="M414 284L339.5 314L347.5 382Z" fill="#f0f0f0" stroke="#f0f0f0"></path><path d="M347.5 382L447 387L414 284Z" fill="#e0e0e0" stroke="#e0e0e0"></path><path d="M257 418L355.5 465L347.5 382Z" fill="#dedede" stroke="#dedede"></path><path d="M347.5 382L355.5 465L447 387Z" fill="#e5e5e5" stroke="#e5e5e5"></path><path d="M355.5 465L442 470L447 387Z" fill="#e0e0e0" stroke="#e0e0e0"></path><path d="M218 214L257 337L339.5 314Z" fill="#e7e7e7" stroke="#e7e7e7"></path><path d="M339.5 314L257 337L347.5 382Z" fill="#ebebeb" stroke="#ebebeb"></path><path d="M257 337L257 418L347.5 382Z" fill="#e7e7e7" stroke="#e7e7e7"></path><path d="M414 284L333.5 180L339.5 314Z" fill="#e7e7e7" stroke="#e7e7e7"></path><path d="M529.5 215L437 165L414 284Z" fill="#ededed" stroke="#ededed"></path><path d="M414 284L437 165L333.5 180Z" fill="#f0f0f0" stroke="#f0f0f0"></path><path d="M581.5 269L414 284L447 387Z" fill="#e2e2e2" stroke="#e2e2e2"></path><path d="M581.5 269L529.5 215L414 284Z" fill="#e9e9e9" stroke="#e9e9e9"></path><path d="M522.5 494L579.5 362L447 387Z" fill="#e9e9e9" stroke="#e9e9e9"></path><path d="M433 600L522.5 494L442 470Z" fill="#ebebeb" stroke="#ebebeb"></path><path d="M442 470L522.5 494L447 387Z" fill="#f0f0f0" stroke="#f0f0f0"></path><path d="M579.5 362L581.5 269L447 387Z" fill="#dedede" stroke="#dedede"></path><path d="M530.5 139L412 134L437 165Z" fill="#f0f0f0" stroke="#f0f0f0"></path><path d="M437 165L412 134L333.5 180Z" fill="#e0e0e0" stroke="#e0e0e0"></path><path d="M333.5 180L218 214L339.5 314Z" fill="#ebebeb" stroke="#ebebeb"></path><path d="M83.5 402L213 480L257 418Z" fill="#f0f0f0" stroke="#f0f0f0"></path><path d="M219 94L218 214L333.5 180Z" fill="#e2e2e2" stroke="#e2e2e2"></path><path d="M412 134L337.5 131L333.5 180Z" fill="#e0e0e0" stroke="#e0e0e0"></path><path d="M83.5 402L257 418L257 337Z" fill="#e0e0e0" stroke="#e0e0e0"></path><path d="M257 418L213 480L355.5 465Z" fill="#ededed" stroke="#ededed"></path><path d="M355.5 465L359.5 600L442 470Z" fill="#f0f0f0" stroke="#f0f0f0"></path><path d="M529.5 215L530.5 139L437 165Z" fill="#f0f0f0" stroke="#f0f0f0"></path><path d="M684 217L530.5 139L529.5 215Z" fill="#e7e7e7" stroke="#e7e7e7"></path><path d="M238 600L359.5 600L355.5 465Z" fill="#ebebeb" stroke="#ebebeb"></path><path d="M359.5 600L433 600L442 470Z" fill="#e9e9e9" stroke="#e9e9e9"></path><path d="M119.5 223L123.5 278L218 214Z" fill="#e0e0e0" stroke="#e0e0e0"></path><path d="M218 214L123.5 278L257 337Z" fill="#f0f0f0" stroke="#f0f0f0"></path><path d="M522.5 494L644 474L579.5 362Z" fill="#e0e0e0" stroke="#e0e0e0"></path><path d="M579.5 362L678 336L581.5 269Z" fill="#f0f0f0" stroke="#f0f0f0"></path><path d="M598.5 600L644 474L522.5 494Z" fill="#e9e9e9" stroke="#e9e9e9"></path><path d="M713 382L678 336L579.5 362Z" fill="#ebebeb" stroke="#ebebeb"></path><path d="M581.5 269L684 217L529.5 215Z" fill="#e0e0e0" stroke="#e0e0e0"></path><path d="M96.5 126L119.5 223L218 214Z" fill="#f2f2f2" stroke="#f2f2f2"></path><path d="M213 480L238 600L355.5 465Z" fill="#e0e0e0" stroke="#e0e0e0"></path><path d="M141.5 600L238 600L213 480Z" fill="#e9e9e9" stroke="#e9e9e9"></path><path d="M319.5 0L219 94L337.5 131Z" fill="#f4f4f4" stroke="#f4f4f4"></path><path d="M337.5 131L219 94L333.5 180Z" fill="#e9e9e9" stroke="#e9e9e9"></path><path d="M319.5 0L337.5 131L412 134Z" fill="#ededed" stroke="#ededed"></path><path d="M678 336L684 217L581.5 269Z" fill="#f4f4f4" stroke="#f4f4f4"></path><path d="M0 331L83.5 402L123.5 278Z" fill="#f2f2f2" stroke="#f2f2f2"></path><path d="M123.5 278L83.5 402L257 337Z" fill="#ededed" stroke="#ededed"></path><path d="M644 474L713 382L579.5 362Z" fill="#ebebeb" stroke="#ebebeb"></path><path d="M678 336L773.5 339L684 217Z" fill="#dedede" stroke="#dedede"></path><path d="M433 600L598.5 600L522.5 494Z" fill="#dedede" stroke="#dedede"></path><path d="M786.5 520L759.5 375L713 382Z" fill="#f4f4f4" stroke="#f4f4f4"></path><path d="M484 0L319.5 0L412 134Z" fill="#dedede" stroke="#dedede"></path><path d="M484 0L412 134L530.5 139Z" fill="#dedede" stroke="#dedede"></path><path d="M525.5 0L484 0L530.5 139Z" fill="#ededed" stroke="#ededed"></path><path d="M83.5 402L94.5 536L213 480Z" fill="#e0e0e0" stroke="#e0e0e0"></path><path d="M598.5 600L642 600L644 474Z" fill="#ededed" stroke="#ededed"></path><path d="M94.5 536L141.5 600L213 480Z" fill="#e7e7e7" stroke="#e7e7e7"></path><path d="M666 63L525.5 0L530.5 139Z" fill="#dedede" stroke="#dedede"></path><path d="M786.5 520L713 382L644 474Z" fill="#e0e0e0" stroke="#e0e0e0"></path><path d="M713 382L773.5 339L678 336Z" fill="#ededed" stroke="#ededed"></path><path d="M219 94L96.5 126L218 214Z" fill="#f0f0f0" stroke="#f0f0f0"></path><path d="M0 204L0 331L123.5 278Z" fill="#ebebeb" stroke="#ebebeb"></path><path d="M121.5 0L96.5 126L219 94Z" fill="#e7e7e7" stroke="#e7e7e7"></path><path d="M759.5 375L773.5 339L713 382Z" fill="#dedede" stroke="#dedede"></path><path d="M684 217L666 63L530.5 139Z" fill="#e7e7e7" stroke="#e7e7e7"></path><path d="M778.5 98L666 63L684 217Z" fill="#ebebeb" stroke="#ebebeb"></path><path d="M0 204L123.5 278L119.5 223Z" fill="#e7e7e7" stroke="#e7e7e7"></path><path d="M83.5 402L0 501L94.5 536Z" fill="#f0f0f0" stroke="#f0f0f0"></path><path d="M319.5 0L197 0L219 94Z" fill="#f4f4f4" stroke="#f4f4f4"></path><path d="M0 331L0 428L83.5 402Z" fill="#e5e5e5" stroke="#e5e5e5"></path><path d="M94.5 536L0 600L141.5 600Z" fill="#f2f2f2" stroke="#f2f2f2"></path><path d="M96.5 126L0 204L119.5 223Z" fill="#e9e9e9" stroke="#e9e9e9"></path><path d="M0 115L0 204L96.5 126Z" fill="#e0e0e0" stroke="#e0e0e0"></path><path d="M773.5 339L801.5 223L684 217Z" fill="#f2f2f2" stroke="#f2f2f2"></path><path d="M0 428L0 501L83.5 402Z" fill="#e0e0e0" stroke="#e0e0e0"></path><path d="M642 600L786.5 520L644 474Z" fill="#e2e2e2" stroke="#e2e2e2"></path><path d="M759.5 375L900 391L773.5 339Z" fill="#e7e7e7" stroke="#e7e7e7"></path><path d="M773.5 339L900 265L801.5 223Z" fill="#e5e5e5" stroke="#e5e5e5"></path><path d="M197 0L121.5 0L219 94Z" fill="#e9e9e9" stroke="#e9e9e9"></path><path d="M772.5 0L671 0L666 63Z" fill="#e0e0e0" stroke="#e0e0e0"></path><path d="M666 63L671 0L525.5 0Z" fill="#e7e7e7" stroke="#e7e7e7"></path><path d="M0 0L0 115L96.5 126Z" fill="#e9e9e9" stroke="#e9e9e9"></path><path d="M801.5 223L778.5 98L684 217Z" fill="#dedede" stroke="#dedede"></path><path d="M0 501L0 600L94.5 536Z" fill="#dedede" stroke="#dedede"></path><path d="M642 600L797.5 600L786.5 520Z" fill="#e5e5e5" stroke="#e5e5e5"></path><path d="M900 485L900 391L759.5 375Z" fill="#ebebeb" stroke="#ebebeb"></path><path d="M900 485L759.5 375L786.5 520Z" fill="#e2e2e2" stroke="#e2e2e2"></path><path d="M801.5 223L900 108L778.5 98Z" fill="#e9e9e9" stroke="#e9e9e9"></path><path d="M900 0L772.5 0L778.5 98Z" fill="#e2e2e2" stroke="#e2e2e2"></path><path d="M778.5 98L772.5 0L666 63Z" fill="#dedede" stroke="#dedede"></path><path d="M900 391L900 265L773.5 339Z" fill="#e7e7e7" stroke="#e7e7e7"></path><path d="M900 265L900 226L801.5 223Z" fill="#ededed" stroke="#ededed"></path><path d="M121.5 0L0 0L96.5 126Z" fill="#ebebeb" stroke="#ebebeb"></path><path d="M900 600L900 485L786.5 520Z" fill="#f2f2f2" stroke="#f2f2f2"></path><path d="M900 226L900 108L801.5 223Z" fill="#f4f4f4" stroke="#f4f4f4"></path><path d="M797.5 600L900 600L786.5 520Z" fill="#dedede" stroke="#dedede"></path><path d="M900 108L900 0L778.5 98Z" fill="#f0f0f0" stroke="#f0f0f0"></path></g></svg>